<svg width="1200" height="675" viewBox="0 0 1200 675" fill="none" xmlns="http://www.w3.org/2000/svg">
  <rect width="1200" height="675" rx="48" fill="#070813"/>
  <rect x="70" y="70" width="1060" height="360" rx="28" fill="url(#paint0_linear)" stroke="rgba(255,255,255,0.15)"/>
  <rect x="70" y="460" width="520" height="140" rx="24" fill="url(#paint1_linear)" stroke="rgba(255,255,255,0.12)"/>
  <rect x="610" y="460" width="520" height="140" rx="24" fill="url(#paint2_linear)" stroke="rgba(255,255,255,0.12)"/>
  <rect x="120" y="120" width="480" height="240" rx="22" fill="rgba(13,18,44,0.9)"/>
  <rect x="640" y="120" width="440" height="240" rx="22" fill="rgba(13,18,44,0.85)"/>
  <circle cx="220" cy="220" r="60" fill="#5DF2A5"/>
  <circle cx="220" cy="220" r="80" stroke="rgba(93,242,165,0.4)" stroke-width="8"/>
  <rect x="340" y="160" width="220" height="24" rx="12" fill="#1B2448"/>
  <rect x="340" y="200" width="260" height="16" rx="8" fill="#1B2448"/>
  <rect x="340" y="240" width="180" height="16" rx="8" fill="#1B2448"/>
  <rect x="340" y="280" width="200" height="16" rx="8" fill="#1B2448"/>
  <rect x="680" y="160" width="340" height="48" rx="12" fill="#1F2C56"/>
  <rect x="680" y="224" width="150" height="80" rx="18" fill="#101738"/>
  <rect x="850" y="224" width="170" height="80" rx="18" fill="#101738"/>
  <rect x="680" y="320" width="340" height="28" rx="14" fill="#131C3C"/>
  <g opacity="0.8">
    <rect x="110" y="490" width="200" height="26" rx="13" fill="#192348"/>
    <rect x="110" y="530" width="280" height="18" rx="9" fill="#192348"/>
    <rect x="110" y="560" width="180" height="16" rx="8" fill="#192348"/>
  </g>
  <g opacity="0.85">
    <rect x="650" y="490" width="220" height="26" rx="13" fill="#1A2446"/>
    <rect x="650" y="530" width="290" height="18" rx="9" fill="#1A2446"/>
    <rect x="650" y="560" width="320" height="16" rx="8" fill="#1A2446"/>
  </g>
  <defs>
    <linearGradient id="paint0_linear" x1="70" y1="70" x2="1130" y2="430" gradientUnits="userSpaceOnUse">
      <stop stop-color="#0B1024"/>
      <stop offset="1" stop-color="#152049"/>
    </linearGradient>
    <linearGradient id="paint1_linear" x1="70" y1="460" x2="590" y2="600" gradientUnits="userSpaceOnUse">
      <stop stop-color="#0B1024"/>
      <stop offset="1" stop-color="#111932"/>
    </linearGradient>
    <linearGradient id="paint2_linear" x1="610" y1="460" x2="1130" y2="600" gradientUnits="userSpaceOnUse">
      <stop stop-color="#101735"/>
      <stop offset="1" stop-color="#162245"/>
    </linearGradient>
  </defs>
</svg>
