<svg width="720" height="480" viewBox="0 0 720 480" xmlns="http://www.w3.org/2000/svg">
  <defs>
    <linearGradient id="bg" x1="0%" y1="0%" x2="100%" y2="100%">
      <stop offset="0%" stop-color="#1b0f2e"/>
      <stop offset="100%" stop-color="#2b1d4b"/>
    </linearGradient>
    <linearGradient id="card" x1="0%" y1="0%" x2="100%" y2="100%">
      <stop offset="0%" stop-color="#ffffff" stop-opacity="0.2"/>
      <stop offset="100%" stop-color="#ffffff" stop-opacity="0.05"/>
    </linearGradient>
  </defs>
  <rect width="720" height="480" rx="32" fill="url(#bg)"/>
  <rect x="48" y="56" width="624" height="64" rx="16" fill="rgba(255,255,255,0.08)"/>
  <rect x="48" y="144" width="296" height="120" rx="18" fill="url(#card)"/>
  <rect x="376" y="144" width="296" height="120" rx="18" fill="url(#card)"/>
  <rect x="48" y="288" width="208" height="136" rx="18" fill="rgba(255,255,255,0.08)"/>
  <rect x="288" y="288" width="384" height="136" rx="18" fill="rgba(255,255,255,0.12)"/>
  <circle cx="112" cy="104" r="12" fill="#a855f7"/>
  <circle cx="144" cy="104" r="12" fill="#f97316"/>
  <circle cx="176" cy="104" r="12" fill="#38bdf8"/>
  <rect x="80" y="188" width="136" height="12" rx="6" fill="#ffffff" opacity="0.45"/>
  <rect x="80" y="212" width="184" height="12" rx="6" fill="#ffffff" opacity="0.25"/>
  <rect x="408" y="188" width="168" height="12" rx="6" fill="#ffffff" opacity="0.45"/>
  <rect x="408" y="212" width="208" height="12" rx="6" fill="#ffffff" opacity="0.25"/>
  <rect x="320" y="332" width="184" height="12" rx="6" fill="#ffffff" opacity="0.3"/>
  <rect x="320" y="356" width="248" height="12" rx="6" fill="#ffffff" opacity="0.2"/>
  <rect x="320" y="380" width="184" height="12" rx="6" fill="#ffffff" opacity="0.3"/>
  <rect x="320" y="404" width="248" height="12" rx="6" fill="#ffffff" opacity="0.2"/>
</svg>
