<svg width="1200" height="675" viewBox="0 0 1200 675" fill="none" xmlns="http://www.w3.org/2000/svg">
  <rect width="1200" height="675" rx="48" fill="#060816"/>
  <rect x="70" y="80" width="1060" height="300" rx="30" fill="url(#grad1)" stroke="rgba(255,255,255,0.12)"/>
  <rect x="70" y="410" width="510" height="185" rx="26" fill="url(#grad2)" stroke="rgba(255,255,255,0.08)"/>
  <rect x="610" y="410" width="520" height="185" rx="26" fill="url(#grad3)" stroke="rgba(255,255,255,0.08)"/>
  <rect x="110" y="120" width="520" height="220" rx="24" fill="rgba(9,11,32,0.95)"/>
  <rect x="660" y="120" width="420" height="220" rx="24" fill="rgba(9,13,32,0.85)"/>
  <path d="M180 214C180 206.268 186.268 200 194 200H246C253.732 200 260 206.268 260 214V252C260 259.732 253.732 266 246 266H194C186.268 266 180 259.732 180 252V214Z" fill="#6de0ff"/>
  <path d="M270 230L330 214L390 250L450 210L510 240" stroke="#FF8FB3" stroke-width="10" stroke-linecap="round" stroke-linejoin="round"/>
  <rect x="690" y="150" width="240" height="32" rx="16" fill="#141c3a"/>
  <rect x="690" y="200" width="300" height="18" rx="9" fill="#141c3a"/>
  <rect x="690" y="240" width="220" height="18" rx="9" fill="#141c3a"/>
  <rect x="125" y="450" width="190" height="22" rx="11" fill="#131a36"/>
  <rect x="125" y="490" width="280" height="18" rx="9" fill="#131a36"/>
  <rect x="125" y="520" width="210" height="18" rx="9" fill="#131a36"/>
  <rect x="660" y="450" width="240" height="22" rx="11" fill="#171f3f"/>
  <rect x="660" y="490" width="320" height="18" rx="9" fill="#171f3f"/>
  <rect x="660" y="520" width="360" height="18" rx="9" fill="#171f3f"/>
  <defs>
    <linearGradient id="grad1" x1="70" y1="80" x2="1130" y2="380" gradientUnits="userSpaceOnUse">
      <stop stop-color="#0d1230"/>
      <stop offset="1" stop-color="#16224d"/>
    </linearGradient>
    <linearGradient id="grad2" x1="70" y1="410" x2="580" y2="595" gradientUnits="userSpaceOnUse">
      <stop stop-color="#080c21"/>
      <stop offset="1" stop-color="#111939"/>
    </linearGradient>
    <linearGradient id="grad3" x1="610" y1="410" x2="1130" y2="595" gradientUnits="userSpaceOnUse">
      <stop stop-color="#0c152f"/>
      <stop offset="1" stop-color="#142149"/>
    </linearGradient>
  </defs>
</svg>
