<svg xmlns="http://www.w3.org/2000/svg" width="1200" height="800" viewBox="0 0 1200 800" fill="none">
  <defs>
    <linearGradient id="bg" x1="0" y1="0" x2="1" y2="1">
      <stop offset="0" stop-color="#0e1a20"/>
      <stop offset="1" stop-color="#17323a"/>
    </linearGradient>
    <linearGradient id="card" x1="0" y1="0" x2="1" y2="1">
      <stop offset="0" stop-color="#ffffff" stop-opacity="0.2"/>
      <stop offset="1" stop-color="#ffffff" stop-opacity="0.06"/>
    </linearGradient>
  </defs>
  <rect width="1200" height="800" rx="48" fill="url(#bg)"/>
  <rect x="80" y="90" width="1040" height="160" rx="36" fill="url(#card)"/>
  <circle cx="130" cy="170" r="18" fill="#7ee5c5"/>
  <circle cx="170" cy="170" r="18" fill="#ffffff" fill-opacity="0.18"/>
  <circle cx="210" cy="170" r="18" fill="#ffffff" fill-opacity="0.18"/>
  <text x="260" y="178" fill="#ffffff" fill-opacity="0.9" font-size="28" font-family="Arial, sans-serif" font-weight="600">VALORIS CONSEIL</text>
  <rect x="80" y="300" width="500" height="200" rx="28" fill="url(#card)"/>
  <rect x="620" y="300" width="500" height="200" rx="28" fill="url(#card)"/>
  <rect x="80" y="530" width="1040" height="180" rx="28" fill="url(#card)"/>
  <rect x="120" y="350" width="260" height="16" rx="8" fill="#ffffff" fill-opacity="0.4"/>
  <rect x="120" y="380" width="320" height="14" rx="7" fill="#ffffff" fill-opacity="0.28"/>
  <rect x="660" y="350" width="280" height="16" rx="8" fill="#ffffff" fill-opacity="0.4"/>
  <rect x="660" y="380" width="320" height="14" rx="7" fill="#ffffff" fill-opacity="0.28"/>
  <rect x="120" y="580" width="460" height="16" rx="8" fill="#ffffff" fill-opacity="0.35"/>
  <rect x="120" y="610" width="520" height="14" rx="7" fill="#ffffff" fill-opacity="0.25"/>
</svg>
